<svg width="35" height="36" viewBox="0 0 35 36" fill="none" xmlns="http://www.w3.org/2000/svg">
<path d="M16.4839 32.3637C15.2488 31.3726 3.77982 20.2194 3.65162 20.0974C3.14508 19.5909 2.82615 19.0656 2.7386 18.5841C2.64793 18.0838 2.80114 17.646 3.20762 17.2396C3.58596 16.8612 4.04872 16.6611 4.54588 16.6611C5.15247 16.6611 5.7747 16.9488 6.29374 17.4709L11.4936 22.4675C11.5842 22.5551 11.7031 22.5988 11.8187 22.5988C11.9407 22.5988 12.0595 22.5519 12.1502 22.4613C12.3315 22.2799 12.3315 21.986 12.1533 21.8046L3.85173 13.231C3.02001 12.3993 2.62917 11.1267 3.61723 10.1387C3.99557 9.76033 4.45833 9.56021 4.95548 9.56021C5.56208 9.56021 6.1843 9.84788 6.70335 10.37L15.1957 18.6497C15.2863 18.7373 15.4051 18.7842 15.524 18.7842C15.6428 18.7842 15.7647 18.7373 15.8554 18.6466C16.0368 18.4653 16.0399 18.1713 15.8585 17.9869L5.65901 7.53094C5.18686 7.0588 4.90233 6.49285 4.8523 5.94254C4.8054 5.38285 5.00239 4.86381 5.4245 4.44169C5.80284 4.06335 6.2656 3.86324 6.76276 3.86324C7.36935 3.86324 7.99158 4.1509 8.51062 4.66995L18.9134 14.8132C19.0041 14.9007 19.1229 14.9476 19.2417 14.9476C19.3605 14.9476 19.4825 14.9007 19.5731 14.8101C19.7545 14.6287 19.7576 14.3348 19.5763 14.1503L12.022 6.38654C11.5467 5.91127 11.2622 5.34846 11.2153 4.79814C11.1684 4.23845 11.3654 3.71941 11.7875 3.29729C12.1658 2.91895 12.6286 2.71884 13.1257 2.71884C13.7323 2.71884 14.3546 3.0065 14.8736 3.52868C17.6439 6.24896 24.8761 13.3624 25.12 13.625C26.0487 14.266 26.2363 13.2967 26.2832 12.6682C26.3363 11.9366 25.4984 9.38199 25.9861 7.08381C26.8054 4.02896 29.1661 4.52924 29.2192 4.55426C30.5137 5.16085 30.2667 6.06761 29.8071 7.89052L29.7601 8.2501C29.2786 10.6327 32.5867 17.6929 32.8306 18.2214C34.1282 21.0605 35.6228 26.8169 30.6732 31.7665C25.2482 37.1915 18.5319 34.4118 16.4839 32.3637Z" fill="url(#paint0_radial_14_469)"/>
<path d="M23.4442 35.4092C20.1173 35.4092 17.2875 33.8177 16.1713 32.714C15.1676 31.8948 8.83276 25.7788 3.67359 20.7728C3.46409 20.5696 3.34215 20.4539 3.32964 20.4383C2.74494 19.8536 2.38223 19.2438 2.27905 18.6685C2.16023 18.015 2.36347 17.4241 2.87626 16.9081C3.34528 16.4391 3.9206 16.1921 4.54596 16.1921C5.28075 16.1921 6.01867 16.5298 6.62526 17.1395L11.8188 22.1299L3.51412 13.5562C2.55733 12.5995 2.07581 11.0142 3.28587 9.80725C3.75488 9.33823 4.33021 9.09122 4.95556 9.09122C5.69036 9.09122 6.42827 9.42891 7.03487 10.0386L15.5209 18.3121L5.32452 7.85927C4.78047 7.31521 4.4459 6.64921 4.38649 5.98634C4.32708 5.27969 4.57097 4.63245 5.09314 4.11028C5.56216 3.64126 6.13748 3.39425 6.76284 3.39425C7.4945 3.39425 8.23242 3.72881 8.84214 4.33853L19.2418 14.4786L11.6875 6.71488C11.1403 6.16769 10.8058 5.50169 10.7495 4.83881C10.6901 4.13529 10.9339 3.48805 11.4561 2.96588C11.9251 2.49686 12.5005 2.24985 13.1258 2.24985C13.8606 2.24985 14.5985 2.58754 15.2051 3.19726L17.4595 5.40789C21.4774 9.34762 24.8356 12.6464 25.1951 13.0153C25.3702 13.156 25.5985 13.2092 25.6954 13.1623C25.758 13.131 25.8268 12.9872 25.8142 12.6839C25.7955 12.1523 25.7204 11.4926 25.6423 10.7953C25.4859 9.39452 25.3233 7.9437 25.5266 6.9869C25.9706 5.32659 26.843 4.62307 27.4933 4.31977C28.3876 3.90704 29.2537 4.05087 29.4194 4.12904C31.0453 4.89197 30.7233 6.16769 30.2793 7.93744L30.2699 7.98122L30.2199 8.34705C29.8947 9.94796 31.5644 14.3723 33.2341 17.9775L33.2591 18.0275C34.3753 20.4664 36.3859 26.7231 31.0078 32.1011C28.5345 34.5681 25.858 35.4092 23.4442 35.4092ZM4.54596 17.1301C4.177 17.1301 3.8268 17.2834 3.53914 17.571C3.24209 17.8681 3.13891 18.1557 3.20145 18.4997C3.27024 18.878 3.54852 19.3283 3.98314 19.766C3.98627 19.7691 4.11134 19.8911 4.32708 20.0975C11.65 27.2046 16.0712 31.4289 16.7779 31.9979L16.8154 32.0323C18.5414 33.7583 24.9544 36.8225 30.3418 31.4351C35.304 26.4729 33.4373 20.679 32.4024 18.4153L32.3805 18.3683C31.3049 16.0483 28.8597 10.4201 29.2943 8.17508L29.3663 7.70606C29.8478 5.79248 29.8759 5.39225 29.0598 4.99828C28.8191 4.9545 27.0931 4.74501 26.4333 7.20578C26.2676 7.9906 26.4271 9.42579 26.5678 10.6921C26.6491 11.4082 26.7241 12.0867 26.7429 12.6526C26.7742 13.5437 26.352 13.8846 26.0957 14.0096C25.5735 14.2629 24.9513 14.0472 24.5635 13.722L24.5229 13.6844C24.3322 13.4781 19.7952 9.02869 16.7935 6.08327L14.536 3.86639C13.7668 3.09408 12.7756 2.96588 12.1096 3.63188C11.7844 3.95706 11.6375 4.33853 11.6719 4.76064C11.7094 5.20152 11.947 5.66115 12.3441 6.05825L19.914 13.822C20.2705 14.1847 20.2705 14.7788 19.9078 15.1415C19.5607 15.4886 18.9479 15.4948 18.5914 15.1509L8.18239 5.00453C7.41321 4.23535 6.41889 4.10715 5.75602 4.77315C5.43083 5.09834 5.28387 5.4798 5.31827 5.90191C5.35892 6.34279 5.59655 6.80555 5.99053 7.1964L16.1932 17.6586C16.5528 18.0213 16.5496 18.6154 16.1869 18.9781C15.8399 19.3251 15.227 19.3314 14.8706 18.9874L6.37512 10.7046C5.60593 9.92919 4.61162 9.80412 3.94874 10.4701C3.13891 11.28 3.57041 12.2837 4.18325 12.8996L12.4911 21.4795C12.8475 21.8422 12.8444 22.4332 12.4817 22.7927C12.1315 23.1429 11.5249 23.1461 11.1685 22.8052L5.96864 17.8087C5.53089 17.3678 5.02748 17.1301 4.54596 17.1301Z" fill="#BA8F63"/>
<path d="M24.3729 13.3217C22.6563 16.8268 22.8783 21.7327 25.4547 25.6693C25.7455 26.2009 26.2427 25.9414 25.9894 25.3942C22.8783 18.7373 26.1395 13.9408 26.1395 13.9408L24.3729 13.3217Z" fill="#BA8F63"/>
<path d="M17.6221 0.176786C18.5664 -0.0702291 19.5732 -0.0483416 20.5519 0.179913C21.5243 0.41442 22.4967 0.90845 23.219 1.71516C23.9256 2.51561 24.3603 3.48804 24.5072 4.50736C24.6448 5.51731 24.5166 6.55852 24.0382 7.42151C23.9819 6.45221 23.8131 5.56108 23.5285 4.73874C23.3816 4.32914 23.2096 3.93829 23.0001 3.56933C22.7937 3.2035 22.5499 2.84079 22.2903 2.54375C21.7619 1.93403 21.0459 1.45876 20.2423 1.0898C19.4356 0.708337 18.557 0.426927 17.6221 0.176786Z" fill="#B0BEC5"/>
<path d="M17.8818 3.14095C18.404 2.80951 19.0575 2.74072 19.6735 2.85016C20.2957 2.9596 20.8898 3.26915 21.3588 3.69751C21.8247 4.13214 22.1561 4.67932 22.3625 5.24839C22.4626 5.53293 22.5126 5.8331 22.5595 6.12389C22.5751 6.42406 22.5751 6.72423 22.5282 7.0244C22.3125 6.79614 22.1436 6.56789 21.9842 6.34589C21.7997 6.1364 21.6558 5.91439 21.4901 5.71115C21.1649 5.3078 20.8491 4.94197 20.5083 4.61679C20.1581 4.30098 19.7892 4.0227 19.3608 3.78194C18.9356 3.53492 18.4572 3.32856 17.8818 3.14095Z" fill="#90A4AE"/>
<path d="M0.00597619 22.9522C0.446851 23.8152 0.906486 24.6156 1.44116 25.3223C1.97271 26.0289 2.58243 26.6293 3.29221 27.0201C3.63616 27.2108 4.04576 27.3766 4.44599 27.5016C4.84934 27.6298 5.26833 27.7174 5.69982 27.7768C6.56281 27.8831 7.46958 27.8643 8.42949 27.7174C7.68532 28.3646 6.69101 28.7086 5.67794 28.7836C4.65236 28.8524 3.61114 28.6304 2.67936 28.1051C1.74133 27.5704 1.05344 26.7199 0.62195 25.8163C0.190456 24.9064 -0.0409254 23.9277 0.00597619 22.9522Z" fill="#B0BEC5"/>
<path d="M2.96092 22.5863C3.26421 23.1116 3.56438 23.5337 3.89269 23.9027C4.21788 24.2717 4.56808 24.575 4.94954 24.8501C5.33726 25.1159 5.7625 25.3504 6.22526 25.5849C6.45665 25.7037 6.70366 25.7975 6.94755 25.9351C7.20082 26.0445 7.45721 26.1602 7.72611 26.326C7.44158 26.4323 7.15079 26.4948 6.85374 26.5417C6.55983 26.5542 6.25653 26.5698 5.95636 26.5292C5.35602 26.4479 4.75568 26.2384 4.23039 25.8726C3.71447 25.5005 3.2861 24.9846 3.05159 24.3999C2.81396 23.8183 2.74517 23.1679 2.96092 22.5863Z" fill="#90A4AE"/>
<defs>
<radialGradient id="paint0_radial_14_469" cx="0" cy="0" r="1" gradientUnits="userSpaceOnUse" gradientTransform="translate(11.6425 10.6514) rotate(-45) scale(28.456)">
<stop offset="0.3533" stop-color="#E0BB95"/>
<stop offset="0.8723" stop-color="#CCA47A"/>
</radialGradient>
</defs>
</svg>
