<svg width="640" height="830" viewBox="0 0 640 830" fill="none" xmlns="http://www.w3.org/2000/svg">
<path d="M545.574 401.867C597.724 401.867 640 359.532 640 307.31C640 255.088 597.724 212.753 545.574 212.753C493.424 212.753 451.147 255.088 451.147 307.31C451.147 359.532 493.424 401.867 545.574 401.867Z" fill="#393939"/>
<path d="M94.4262 401.867C146.576 401.867 188.852 359.533 188.852 307.31C188.852 255.088 146.576 212.753 94.4262 212.753C42.2761 212.753 0 255.088 0 307.31C0 359.533 42.2761 401.867 94.4262 401.867Z" fill="#95D0D5"/>
<path d="M335.738 830C387.888 830 430.164 787.665 430.164 735.443C430.164 683.221 387.888 640.886 335.738 640.886C283.588 640.886 241.312 683.221 241.312 735.443C241.312 787.665 283.588 830 335.738 830Z" fill="#FD7E50"/>
<path d="M640 3.05176e-05C640 24.8348 635.115 49.4264 625.624 72.3708C616.134 95.3152 602.223 116.163 584.686 133.724C567.15 151.285 546.331 165.215 523.418 174.719C500.506 184.222 475.948 189.114 451.147 189.114L451.147 3.05176e-05H640Z" fill="#FD7E50"/>
<path d="M451.147 189.114C426.347 189.114 401.789 184.222 378.877 174.718C355.964 165.215 335.145 151.285 317.609 133.724C300.072 116.163 286.161 95.3151 276.67 72.3708C267.18 49.4264 262.295 24.8348 262.295 0L451.147 1.65329e-05L451.147 189.114Z" fill="#95D0D5"/>
<path d="M209.836 3.05176e-05C209.836 50.1562 189.939 98.258 154.523 133.724C119.106 169.189 71.0707 189.114 20.9839 189.114L20.9839 3.05176e-05H209.836Z" fill="#71357C"/>
<path d="M451.147 212.753C451.147 237.588 446.262 262.18 436.772 285.124C427.281 308.068 413.37 328.916 395.834 346.477C378.297 364.038 357.478 377.968 334.566 387.472C311.653 396.976 287.095 401.867 262.295 401.867L262.295 212.753H451.147Z" fill="#F35D5D"/>
<path d="M640 830C615.199 830 590.642 825.108 567.729 815.605C544.817 806.101 523.998 792.171 506.461 774.61C488.924 757.049 475.014 736.201 465.523 713.257C456.032 690.312 451.147 665.721 451.147 640.886L640 640.886L640 830Z" fill="#95D0D5"/>
<path d="M26.2297 640.886C26.2297 616.051 31.1145 591.46 40.6053 568.515C50.096 545.571 64.0067 524.723 81.5433 507.162C99.0799 489.601 119.899 475.671 142.811 466.168C165.724 456.664 190.282 451.772 215.082 451.772L215.082 640.886L26.2297 640.886Z" fill="#F35D5D"/>
<path d="M215.082 830C190.281 830 165.724 825.108 142.811 815.605C119.899 806.101 99.0797 792.171 81.5431 774.61C64.0065 757.049 50.0957 736.201 40.605 713.257C31.1143 690.312 26.2295 665.721 26.2295 640.886L215.082 640.886L215.082 830Z" fill="#393939"/>
<path d="M640 430.76C640 455.594 635.115 480.186 625.624 503.13C616.134 526.075 602.223 546.922 584.686 564.483C567.15 582.044 546.331 595.974 523.418 605.478C500.505 614.982 475.948 619.873 451.147 619.873C426.347 619.873 401.789 614.982 378.877 605.478C355.964 595.974 335.145 582.044 317.609 564.483C300.072 546.922 286.161 526.075 276.67 503.13C267.18 480.186 262.295 455.594 262.295 430.76L451.147 430.76H640Z" fill="#71357C"/>
<path d="M263.482 192.659C270.447 163.147 252.17 133.577 222.659 126.612C193.147 119.647 163.577 137.924 156.612 167.435C149.647 196.947 167.924 226.517 197.435 233.482C226.947 240.447 256.517 222.17 263.482 192.659Z" fill="#101940"/>
</svg>
