<svg width="684" height="880" viewBox="0 0 684 880" fill="none" xmlns="http://www.w3.org/2000/svg">
<path d="M460.437 355.49C474.35 296.417 437.841 237.225 378.891 223.283C319.941 209.34 260.873 245.926 246.96 304.999C233.046 364.073 269.556 423.264 328.506 437.207C387.456 451.15 446.523 414.564 460.437 355.49Z" fill="#EF4956"/>
<path d="M22.8403 109.901H132.511V219.802L22.8403 109.901Z" fill="#3F2E7F"/>
<path d="M22.8403 0H132.511V109.901L22.8403 0Z" fill="#3F2E7F"/>
<path d="M356.456 110.571H466.127V220.472L356.456 110.571Z" fill="#00B1BF"/>
<path d="M132.511 109.901H242.122V219.802L132.511 109.901Z" fill="#3F2E7F"/>
<path d="M132.207 329.399H22.7788V219.741C83.1739 219.741 132.207 268.816 132.207 329.399Z" fill="#00B1BF"/>
<path d="M132.207 769.125H22.7788V659.468C83.1739 659.468 132.207 708.543 132.207 769.125Z" fill="#F99D2D"/>
<path d="M679.382 879.026H569.954V769.368C630.41 769.368 679.382 818.443 679.382 879.026Z" fill="#101940"/>
<path d="M574.025 330.129H464.597V220.472C525.053 220.472 574.025 269.547 574.025 330.129Z" fill="#F99D2D"/>
<path d="M242.122 0V109.901C181.544 109.901 132.451 60.7044 132.451 0H242.122Z" fill="#EF4956"/>
<path d="M244.04 660.259V550.358C304.617 550.358 353.711 599.554 353.711 660.259H244.04Z" fill="#00B1BF"/>
<path d="M573.235 439.787C633.813 439.787 682.906 488.983 682.906 549.688H463.564C463.564 488.983 512.658 439.787 573.235 439.787Z" fill="#F99D2D"/>
<path d="M116.299 423.127C137.709 401.687 137.709 366.925 116.299 345.485C94.889 324.044 60.1764 324.044 38.7663 345.485C17.3563 366.925 17.3563 401.687 38.7663 423.127C60.1764 444.568 94.889 444.568 116.299 423.127Z" fill="#101940"/>
<path d="M187.316 330.312C217.585 330.312 242.122 305.723 242.122 275.392C242.122 245.06 217.585 220.472 187.316 220.472C157.048 220.472 132.511 245.06 132.511 275.392C132.511 305.723 157.048 330.312 187.316 330.312Z" fill="#393939"/>
<path d="M461.957 507.947C468.918 478.394 450.653 448.782 421.162 441.806C391.671 434.831 362.12 453.134 355.16 482.688C348.199 512.241 366.464 541.853 395.955 548.828C425.447 555.803 454.997 537.5 461.957 507.947Z" fill="#101940"/>
<path d="M519.341 659.65C549.642 659.65 574.207 635.034 574.207 604.669C574.207 574.304 549.642 549.688 519.341 549.688C489.039 549.688 464.475 574.304 464.475 604.669C464.475 635.034 489.039 659.65 519.341 659.65Z" fill="#101940"/>
<path d="M629.134 659.65C659.436 659.65 684 635.034 684 604.669C684 574.304 659.436 549.688 629.134 549.688C598.832 549.688 574.268 574.304 574.268 604.669C574.268 635.034 598.832 659.65 629.134 659.65Z" fill="#101940"/>
<path d="M244.1 220.472V0.669586H463.442L244.1 220.472Z" fill="#F36B36"/>
<path d="M463.564 879.208V659.346H682.906L463.564 879.208Z" fill="#F36B36"/>
<path d="M241.878 658.615V878.356H22.5967L241.878 658.615Z" fill="#EF4956"/>
<path d="M463.442 659.346V769.247H353.771L463.442 659.346Z" fill="#EF4956"/>
<path d="M463.442 769.246V879.147H353.771L463.442 769.246Z" fill="#EF4956"/>
<path d="M683.939 220.168V439.97H464.597L683.939 220.168Z" fill="#00B1BF"/>
<path d="M242.122 501.282L22.8403 560.16V595.596L242.122 536.719V501.282Z" fill="#101940"/>
<path d="M242.122 565.214L22.8403 624.092V659.528L242.122 600.65V565.214Z" fill="#101940"/>
<path d="M242.122 438.386L22.8403 497.264V532.7L242.122 473.823V438.386Z" fill="#101940"/>
<path d="M683.939 62.896L464.596 121.774V157.21L683.939 98.3322V62.896Z" fill="#101940"/>
<path d="M683.939 126.827L464.596 185.705V221.141L683.939 162.264V126.827Z" fill="#101940"/>
<path d="M683.939 0L464.597 58.8777V94.314L683.939 35.4362V0Z" fill="#101940"/>
<path d="M242.122 329.338H132.451V439.239H242.122V329.338Z" fill="#F99D2D"/>
<path d="M353.711 659.346H244.04V880H353.711V659.346Z" fill="#00B1BF"/>
<path d="M353.711 440.395H244.04V550.296H353.711V440.395Z" fill="#3F2E7F"/>
<path d="M463.382 550.358H353.71V660.259H463.382V550.358Z" fill="#3F2E7F"/>
</svg>
