<svg width="96" height="96" viewBox="0 0 96 96" fill="none" xmlns="http://www.w3.org/2000/svg">
<g filter="url(#filter0_d_25_111)">
<path d="M44 68H52V52H68V44H52V28H44V44H28V52H44V68ZM48 88C42.4667 88 37.2667 86.9493 32.4 84.848C27.5333 82.7493 23.3 79.9 19.7 76.3C16.1 72.7 13.2507 68.4667 11.152 63.6C9.05067 58.7333 8 53.5333 8 48C8 42.4667 9.05067 37.2667 11.152 32.4C13.2507 27.5333 16.1 23.3 19.7 19.7C23.3 16.1 27.5333 13.2493 32.4 11.148C37.2667 9.04933 42.4667 8 48 8C53.5333 8 58.7333 9.04933 63.6 11.148C68.4667 13.2493 72.7 16.1 76.3 19.7C79.9 23.3 82.7493 27.5333 84.848 32.4C86.9493 37.2667 88 42.4667 88 48C88 53.5333 86.9493 58.7333 84.848 63.6C82.7493 68.4667 79.9 72.7 76.3 76.3C72.7 79.9 68.4667 82.7493 63.6 84.848C58.7333 86.9493 53.5333 88 48 88Z" fill="black"/>
</g>
<defs>
<filter id="filter0_d_25_111" x="6" y="8" width="84" height="84" filterUnits="userSpaceOnUse" color-interpolation-filters="sRGB">
<feFlood flood-opacity="0" result="BackgroundImageFix"/>
<feColorMatrix in="SourceAlpha" type="matrix" values="0 0 0 0 0 0 0 0 0 0 0 0 0 0 0 0 0 0 127 0" result="hardAlpha"/>
<feOffset dy="2"/>
<feGaussianBlur stdDeviation="1"/>
<feComposite in2="hardAlpha" operator="out"/>
<feColorMatrix type="matrix" values="0 0 0 0 0 0 0 0 0 0 0 0 0 0 0 0 0 0 0.25 0"/>
<feBlend mode="normal" in2="BackgroundImageFix" result="effect1_dropShadow_25_111"/>
<feBlend mode="normal" in="SourceGraphic" in2="effect1_dropShadow_25_111" result="shape"/>
</filter>
</defs>
</svg>
