<svg width="28" height="28" viewBox="0 0 28 28" fill="none" xmlns="http://www.w3.org/2000/svg">
<path d="M14 25.9375C13.7747 25.9364 13.5532 25.88 13.3547 25.7734C12.8844 25.5 1.75 19.1781 1.75 11.0625C1.74849 9.64001 2.18039 8.25083 2.98818 7.07995C3.79597 5.90908 4.9413 5.0121 6.27165 4.50847C7.60199 4.00484 9.0542 3.91846 10.4349 4.26085C11.8155 4.60324 13.0591 5.35813 14 6.42499C14.9409 5.35813 16.1845 4.60324 17.5651 4.26085C18.9458 3.91846 20.398 4.00484 21.7284 4.50847C23.0587 5.0121 24.204 5.90908 25.0118 7.07995C25.8196 8.25083 26.2515 9.64001 26.25 11.0625C26.25 19.1781 15.1156 25.5 14.6453 25.7734C14.4469 25.88 14.2253 25.9364 14 25.9375V25.9375ZM8.75 6.68749C7.58968 6.68749 6.47688 7.14843 5.65641 7.9689C4.83594 8.78937 4.375 9.90217 4.375 11.0625C4.375 16.6625 11.7469 21.6937 14 23.0937C16.2531 21.6937 23.625 16.6625 23.625 11.0625C23.624 10.052 23.2733 9.07308 22.6323 8.29189C21.9914 7.5107 21.0999 6.97544 20.1091 6.77703C19.1183 6.57861 18.0894 6.72927 17.1971 7.20342C16.3048 7.67757 15.6041 8.44597 15.2141 9.37812C15.1152 9.61885 14.947 9.82474 14.7308 9.96964C14.5146 10.1145 14.2602 10.1919 14 10.1919C13.7398 10.1919 13.4854 10.1145 13.2692 9.96964C13.053 9.82474 12.8848 9.61885 12.7859 9.37812C12.4548 8.58068 11.8946 7.89938 11.1762 7.42043C10.4578 6.94148 9.61344 6.68641 8.75 6.68749V6.68749Z" fill="#B3B3B3"/>
</svg>
